<?xml version="1.0" encoding="UTF-8"?>
<svg width="48px" height="47px" viewBox="0 0 48 47" version="1.1" xmlns="http://www.w3.org/2000/svg" xmlns:xlink="http://www.w3.org/1999/xlink">
    <!-- Generator: Sketch 49.3 (51167) - http://www.bohemiancoding.com/sketch -->
    <title>Search</title>
    <desc>Created with Sketch.</desc>
    <defs></defs>
    <g id="Page-1" stroke="none" stroke-width="1" fill="none" fill-rule="evenodd" fill-opacity="0.54">
        <g id="主页（已登录）点击头像" transform="translate(-1529.000000, -37.000000)" fill="#000000" fill-rule="nonzero">
            <g id="Group-11">
                <g id="Group" transform="translate(199.000000, 25.000000)">
                    <g id="Search" transform="translate(1330.000000, 12.000000)">
                        <path d="M47.084375,43.665625 L34.09375,30.675 C40.374095,22.9249672 39.4869228,11.6144204 32.0750307,4.9383739 C24.6631386,-1.73767257 13.321713,-1.44167987 6.26814159,5.61189159 C-0.785429872,12.665463 -1.08142257,24.0068886 5.5946239,31.4187807 C12.2706704,38.8306728 23.5812172,39.717845 31.33125,33.4375 L44.321875,46.428125 C44.8153481,46.9215981 45.5346008,47.1143213 46.2086976,46.9336977 C46.8827944,46.753074 47.409324,46.2265444 47.5899477,45.5524476 C47.7705713,44.8783508 47.5778481,44.1590981 47.084375,43.665625 Z M4.6875,18.875 C4.6875,10.6875 11.34375,4.03125 19.53125,4.03125 C27.71875,4.03125 34.375,10.6875 34.375,18.875 C34.375,27.0625 27.71875,33.71875 19.53125,33.71875 C11.34375,33.71875 4.6875,27.0625 4.6875,18.875 Z" id="Shape"></path>
                    </g>
                </g>
            </g>
        </g>
    </g>
</svg>